<?xml version="1.0" encoding="UTF-8"?>
<svg xmlns="http://www.w3.org/2000/svg" xmlns:xlink="http://www.w3.org/1999/xlink" width="244.82pt" height="63.8pt" viewBox="0 0 244.82 63.8" version="1.1">
<defs>
<clipPath id="clip1">
  <path d="M 0 0 L 64 0 L 64 63.800781 L 0 63.800781 Z M 0 0 "/>
</clipPath>
<clipPath id="clip2">
  <path d="M 225 23 L 244.820313 23 L 244.820313 48 L 225 48 Z M 225 23 "/>
</clipPath>
</defs>
<g id="surface1">
<path style=" stroke:none;fill-rule:nonzero;fill:rgb(0%,67.799377%,93.699646%);fill-opacity:1;" d="M 13.582031 19.628906 L 13.582031 47.386719 L 10.601563 47.386719 L 10.601563 16.605469 L 18.867188 16.605469 C 20.6875 16.605469 22.148438 16.742188 23.253906 17.015625 C 24.359375 17.292969 25.363281 17.746094 26.269531 18.382813 C 27.492188 19.238281 28.460938 20.390625 29.175781 21.824219 C 29.886719 23.265625 30.242188 24.785156 30.242188 26.394531 C 30.242188 28.777344 29.535156 30.824219 28.117188 32.546875 C 26.703125 34.265625 24.929688 35.203125 22.800781 35.355469 L 30.242188 47.386719 L 26.648438 47.386719 L 17.515625 32.546875 L 20.433594 32.546875 C 22.378906 32.546875 23.960938 31.976563 25.179688 30.835938 C 26.398438 29.691406 27.007813 28.226563 27.007813 26.4375 C 27.007813 25.351563 26.820313 24.363281 26.449219 23.476563 C 26.074219 22.589844 25.519531 21.8125 24.789063 21.148438 C 24.179688 20.601563 23.453125 20.210938 22.597656 19.976563 C 21.746094 19.742188 20.226563 19.628906 18.042969 19.628906 "/>
<path style=" stroke:none;fill-rule:nonzero;fill:rgb(0%,67.799377%,93.699646%);fill-opacity:1;" d="M 49.910156 35.992188 C 49.910156 33.34375 49.03125 31.082031 47.277344 29.207031 C 45.523438 27.332031 43.460938 26.394531 41.089844 26.394531 C 38.640625 26.394531 36.539063 27.285156 34.792969 29.066406 C 33.042969 30.851563 32.167969 33.03125 32.167969 35.609375 C 32.167969 38.332031 33.046875 40.613281 34.800781 42.460938 C 36.554688 44.308594 38.679688 45.230469 41.175781 45.230469 C 43.472656 45.230469 45.503906 44.308594 47.265625 42.460938 C 49.027344 40.613281 49.910156 38.460938 49.910156 35.992188 M 49.824219 27.808594 L 49.824219 16.605469 L 52.824219 16.605469 L 52.824219 47.386719 L 49.824219 47.386719 L 49.824219 43.878906 C 48.78125 45.175781 47.484375 46.1875 45.933594 46.910156 C 44.382813 47.636719 42.742188 48 41.007813 48 C 37.652344 48 34.828125 46.816406 32.53125 44.449219 C 30.230469 42.082031 29.082031 39.179688 29.082031 35.738281 C 29.082031 32.328125 30.21875 29.457031 32.484375 27.121094 C 34.753906 24.789063 37.59375 23.625 41.007813 23.625 C 42.839844 23.625 44.507813 23.980469 46.007813 24.691406 C 47.507813 25.402344 48.78125 26.441406 49.824219 27.808594 "/>
<g clip-path="url(#clip1)" clip-rule="nonzero">
<path style=" stroke:none;fill-rule:nonzero;fill:rgb(0%,67.799377%,93.699646%);fill-opacity:1;" d="M 3.039063 60.761719 L 60.757813 60.761719 L 60.757813 3.039063 L 3.039063 3.039063 Z M 63.796875 63.800781 L 0 63.800781 L 0 0.00390625 L 63.796875 0.00390625 Z M 63.796875 63.800781 "/>
</g>
<path style=" stroke:none;fill-rule:nonzero;fill:rgb(13.299561%,11.799622%,12.199402%);fill-opacity:1;" d="M 78.742188 19.628906 L 78.742188 47.386719 L 75.761719 47.386719 L 75.761719 16.605469 L 84.027344 16.605469 C 85.84375 16.605469 87.308594 16.742188 88.414063 17.015625 C 89.519531 17.292969 90.523438 17.746094 91.425781 18.382813 C 92.652344 19.238281 93.621094 20.390625 94.332031 21.824219 C 95.046875 23.265625 95.402344 24.785156 95.402344 26.394531 C 95.402344 28.777344 94.695313 30.824219 93.277344 32.546875 C 91.859375 34.265625 90.085938 35.203125 87.960938 35.355469 L 95.402344 47.386719 L 91.808594 47.386719 L 82.675781 32.546875 L 85.589844 32.546875 C 87.535156 32.546875 89.117188 31.976563 90.339844 30.835938 C 91.554688 29.691406 92.167969 28.226563 92.167969 26.4375 C 92.167969 25.351563 91.980469 24.363281 91.605469 23.476563 C 91.234375 22.589844 90.679688 21.8125 89.949219 21.148438 C 89.339844 20.601563 88.609375 20.210938 87.757813 19.976563 C 86.90625 19.742188 85.386719 19.628906 83.203125 19.628906 "/>
<path style=" stroke:none;fill-rule:nonzero;fill:rgb(13.299561%,11.799622%,12.199402%);fill-opacity:1;" d="M 116.84375 35.992188 C 116.84375 33.34375 115.964844 31.082031 114.210938 29.207031 C 112.457031 27.332031 110.394531 26.394531 108.027344 26.394531 C 105.574219 26.394531 103.472656 27.285156 101.726563 29.066406 C 99.976563 30.851563 99.105469 33.03125 99.105469 35.609375 C 99.105469 38.332031 99.980469 40.613281 101.734375 42.460938 C 103.492188 44.308594 105.617188 45.230469 108.109375 45.230469 C 110.40625 45.230469 112.4375 44.308594 114.199219 42.460938 C 115.960938 40.613281 116.84375 38.460938 116.84375 35.992188 M 116.757813 27.808594 L 116.757813 16.605469 L 119.761719 16.605469 L 119.761719 47.386719 L 116.757813 47.386719 L 116.757813 43.878906 C 115.714844 45.175781 114.417969 46.1875 112.867188 46.910156 C 111.316406 47.636719 109.675781 48 107.941406 48 C 104.585938 48 101.761719 46.816406 99.464844 44.449219 C 97.164063 42.082031 96.015625 39.179688 96.015625 35.738281 C 96.015625 32.328125 97.152344 29.457031 99.421875 27.121094 C 101.691406 24.789063 104.53125 23.625 107.941406 23.625 C 109.773438 23.625 111.441406 23.980469 112.941406 24.691406 C 114.441406 25.402344 115.714844 26.441406 116.757813 27.808594 "/>
<path style=" stroke:none;fill-rule:nonzero;fill:rgb(13.299561%,11.799622%,12.199402%);fill-opacity:1;" d="M 134.945313 19.542969 L 134.945313 44.492188 L 141.226563 44.492188 C 145.144531 44.492188 148.160156 43.390625 150.273438 41.191406 C 152.390625 38.996094 153.445313 35.878906 153.445313 31.847656 C 153.445313 29.832031 153.085938 27.972656 152.367188 26.265625 C 151.648438 24.5625 150.621094 23.132813 149.28125 21.972656 C 148.277344 21.101563 147.160156 20.476563 145.917969 20.105469 C 144.679688 19.730469 142.875 19.542969 140.507813 19.542969 Z M 131.964844 16.605469 L 140.71875 16.605469 C 143.128906 16.605469 145.152344 16.84375 146.796875 17.324219 C 148.4375 17.800781 149.886719 18.570313 151.140625 19.628906 C 152.902344 21.105469 154.269531 22.917969 155.242188 25.0625 C 156.214844 27.203125 156.703125 29.492188 156.703125 31.933594 C 156.703125 34.652344 156.164063 37.132813 155.09375 39.363281 C 154.023438 41.597656 152.507813 43.421875 150.550781 44.828125 C 149.253906 45.746094 147.851563 46.402344 146.34375 46.796875 C 144.832031 47.191406 142.507813 47.386719 139.363281 47.386719 L 131.964844 47.386719 "/>
<path style=" stroke:none;fill-rule:nonzero;fill:rgb(13.299561%,11.799622%,12.199402%);fill-opacity:1;" d="M 177.296875 34.109375 C 176.734375 31.523438 175.695313 29.578125 174.1875 28.269531 C 172.679688 26.964844 170.714844 26.308594 168.289063 26.308594 C 166.035156 26.308594 164.125 27.011719 162.558594 28.414063 C 160.996094 29.824219 160.035156 31.71875 159.683594 34.109375 Z M 180.59375 36.710938 L 159.601563 36.710938 C 159.78125 39.242188 160.699219 41.285156 162.347656 42.847656 C 163.996094 44.410156 166.054688 45.1875 168.523438 45.1875 C 170.269531 45.1875 171.84375 44.734375 173.238281 43.832031 C 174.632813 42.925781 175.710938 41.664063 176.472656 40.050781 L 179.855469 40.050781 C 178.78125 42.625 177.277344 44.597656 175.339844 45.976563 C 173.402344 47.355469 171.15625 48.042969 168.605469 48.042969 C 165.222656 48.042969 162.363281 46.839844 160.023438 44.425781 C 157.683594 42.015625 156.515625 39.121094 156.515625 35.738281 C 156.515625 32.203125 157.660156 29.277344 159.949219 26.964844 C 162.238281 24.652344 165.167969 23.496094 168.734375 23.496094 C 172.230469 23.496094 175.078125 24.699219 177.285156 27.105469 C 179.492188 29.511719 180.59375 32.640625 180.59375 36.492188 "/>
<path style=" stroke:none;fill-rule:nonzero;fill:rgb(13.299561%,11.799622%,12.199402%);fill-opacity:1;" d="M 179.941406 40.074219 L 183.007813 40.074219 L 183.007813 40.15625 C 183.007813 41.609375 183.421875 42.808594 184.253906 43.761719 C 185.085938 44.714844 186.113281 45.1875 187.34375 45.1875 C 188.511719 45.1875 189.484375 44.824219 190.257813 44.089844 C 191.035156 43.355469 191.421875 42.433594 191.421875 41.320313 C 191.421875 40.207031 191.113281 39.3125 190.503906 38.636719 C 189.890625 37.960938 188.777344 37.324219 187.171875 36.730469 C 184.59375 35.816406 182.910156 34.878906 182.117188 33.921875 C 181.328125 32.960938 180.933594 31.679688 180.933594 30.074219 C 180.933594 28.253906 181.59375 26.710938 182.910156 25.441406 C 184.230469 24.175781 185.824219 23.539063 187.699219 23.539063 C 189.6875 23.539063 191.265625 24.101563 192.4375 25.230469 C 193.605469 26.359375 194.234375 27.929688 194.320313 29.945313 L 191.128906 29.945313 C 191.054688 28.84375 190.707031 27.992188 190.078125 27.386719 C 189.453125 26.78125 188.597656 26.476563 187.511719 26.476563 C 186.539063 26.476563 185.726563 26.804688 185.078125 27.460938 C 184.429688 28.117188 184.105469 28.929688 184.105469 29.902344 C 184.105469 30.59375 184.242188 31.175781 184.507813 31.648438 C 184.777344 32.121094 185.21875 32.546875 185.839844 32.925781 C 186.402344 33.277344 187.226563 33.617188 188.304688 33.941406 C 189.382813 34.265625 190.105469 34.503906 190.472656 34.660156 C 191.921875 35.28125 192.988281 36.105469 193.675781 37.132813 C 194.359375 38.164063 194.699219 39.472656 194.699219 41.066406 C 194.699219 43.066406 194.003906 44.722656 192.605469 46.035156 C 191.210938 47.34375 189.441406 48 187.300781 48 C 185.113281 48 183.359375 47.285156 182.035156 45.855469 C 180.710938 44.425781 180.011719 42.496094 179.941406 40.074219 "/>
<path style=" stroke:none;fill-rule:nonzero;fill:rgb(13.299561%,11.799622%,12.199402%);fill-opacity:1;" d="M 195.71875 24.132813 L 198.699219 24.132813 L 198.699219 47.386719 L 195.71875 47.386719 Z M 198.699219 21.402344 L 195.71875 21.402344 L 195.71875 16.605469 L 198.699219 16.605469 Z M 198.699219 21.402344 "/>
<path style=" stroke:none;fill-rule:nonzero;fill:rgb(13.299561%,11.799622%,12.199402%);fill-opacity:1;" d="M 202.824219 35.570313 C 202.824219 38.289063 203.6875 40.566406 205.414063 42.398438 C 207.140625 44.230469 209.222656 45.144531 211.660156 45.144531 C 213.957031 45.144531 215.988281 44.226563 217.75 42.386719 C 219.511719 40.546875 220.394531 38.386719 220.394531 35.90625 C 220.394531 33.257813 219.527344 30.996094 217.792969 29.121094 C 216.058594 27.246094 214.015625 26.308594 211.660156 26.308594 C 209.234375 26.308594 207.15625 27.199219 205.425781 28.984375 C 203.691406 30.765625 202.824219 32.960938 202.824219 35.570313 M 204.894531 49.289063 C 205.347656 50.644531 206.164063 51.699219 207.347656 52.453125 C 208.53125 53.207031 209.96875 53.582031 211.660156 53.582031 C 214.3125 53.582031 216.433594 52.703125 218.035156 50.9375 C 219.636719 49.175781 220.433594 46.824219 220.433594 43.878906 L 220.433594 43.265625 C 219.308594 44.800781 218.023438 45.960938 216.585938 46.742188 C 215.148438 47.527344 213.5625 47.917969 211.828125 47.917969 C 208.335938 47.917969 205.429688 46.75 203.117188 44.417969 C 200.808594 42.085938 199.652344 39.175781 199.652344 35.695313 C 199.652344 32.269531 200.792969 29.394531 203.078125 27.070313 C 205.359375 24.742188 208.1875 23.582031 211.554688 23.582031 C 213.515625 23.582031 215.210938 23.933594 216.640625 24.636719 C 218.070313 25.34375 219.335938 26.445313 220.433594 27.9375 L 220.433594 24.132813 L 223.351563 24.132813 L 223.351563 43.539063 C 223.351563 47.597656 222.335938 50.769531 220.296875 53.054688 C 218.261719 55.339844 215.453125 56.480469 211.871094 56.480469 C 209.234375 56.480469 206.972656 55.828125 205.085938 54.523438 C 203.195313 53.21875 201.976563 51.476563 201.425781 49.289063 "/>
<g clip-path="url(#clip2)" clip-rule="nonzero">
<path style=" stroke:none;fill-rule:nonzero;fill:rgb(13.299561%,11.799622%,12.199402%);fill-opacity:1;" d="M 225.386719 24.132813 L 228.28125 24.132813 L 228.28125 26.773438 C 229.199219 25.71875 230.257813 24.933594 231.464844 24.425781 C 232.667969 23.917969 234.046875 23.667969 235.597656 23.667969 C 237.300781 23.667969 238.820313 23.984375 240.152344 24.617188 C 241.484375 25.25 242.539063 26.160156 243.3125 27.34375 C 243.847656 28.175781 244.234375 29.152344 244.464844 30.273438 C 244.699219 31.394531 244.816406 33.046875 244.816406 35.230469 L 244.816406 47.386719 L 241.875 47.386719 L 241.875 34.363281 C 241.875 31.613281 241.351563 29.621094 240.300781 28.382813 C 239.25 27.140625 237.570313 26.519531 235.257813 26.519531 C 233.90625 26.519531 232.71875 26.792969 231.695313 27.332031 C 230.675781 27.878906 229.867188 28.65625 229.273438 29.671875 C 228.90625 30.304688 228.652344 31.027344 228.503906 31.839844 C 228.355469 32.648438 228.28125 34.0625 228.28125 36.074219 L 228.28125 47.386719 L 225.386719 47.386719 "/>
</g>
</g>
</svg>
